# Blender v2.73 (sub 0) OBJ File: 'cardboardbox.blend'
# www.blender.org
mtllib cardboardbox_normals.mtl
o cardboardbox_Cube
v -0.390000 0.000000 0.300000
v -0.400000 0.000000 -0.290000
v 0.400000 0.000000 -0.300000
v 0.390000 0.000000 0.290000
v -0.390000 0.400000 0.300000
v -0.400000 0.400000 -0.290000
v 0.400000 0.390000 -0.300000
v 0.390000 0.390000 0.290000
v -0.390000 0.390000 0.000000
v -0.385000 0.000000 0.000000
v 0.395000 0.380000 0.000000
v 0.400000 0.000000 0.000000
v 0.000000 0.380000 0.000000
v 0.000000 0.000000 0.000000
v 0.000000 0.000000 0.285000
v 0.000000 0.390000 0.280000
v 0.000000 0.000000 -0.295000
v 0.000000 0.390000 -0.290000
vt 0.162109 0.695312
vt 0.017578 0.695312
vt 0.017578 0.304688
vt 0.695312 0.695312
vt 0.695312 0.304688
vt 0.501953 0.304688
vt 0.839844 0.695312
vt 0.501953 0.695312
vt 0.306641 0.695312
vt 0.306641 0.304688
vt 0.695312 0.015625
vt 0.306641 0.984375
vt 0.162109 0.304688
vt 0.839844 0.304688
vt 0.984375 0.304688
vt 0.501953 0.015625
vt 0.501953 0.984375
vt 0.306641 0.015625
vt 0.695312 0.984375
vt 0.984375 0.695312
vn -0.999400 0.000000 0.034500
vn -0.012500 0.000000 -0.999900
vn 0.999900 0.000000 0.017200
vn 0.051200 0.000000 0.998700
vn 0.000000 -1.000000 0.000000
vn 0.025000 0.999100 0.033600
vn -0.999800 -0.012800 -0.016700
vn 0.999900 0.013200 0.000000
vn 0.025600 0.999000 -0.035700
vn 0.000000 0.999400 -0.035700
vn -0.025600 0.012800 0.999600
vn 0.000800 0.999400 0.033300
vn -0.012500 0.012800 -0.999800
vn -0.998600 -0.012800 0.051700
vn -0.025000 0.012800 -0.999600
vn 0.999300 0.013100 0.034500
vn 0.038400 0.012800 0.999200
vn 0.025600 0.999100 0.034500
vn -1.000000 0.000000 0.000000
vn 0.999900 0.000000 0.016700
vn 0.023900 0.999200 -0.033300
vn 0.000900 0.999400 -0.034400
vn -0.012800 0.000000 0.999900
vn 0.000000 0.999400 0.034500
vn 0.000000 0.000000 -1.000000
usemtl cardboardbox
s off
f 9/1/1 6/2/1 2/3/1
f 7/4/2 3/5/2 17/6/2
f 11/7/3 8/4/3 4/5/3
f 16/8/4 5/9/4 1/10/4
f 17/6/5 3/5/5 12/11/5
f 18/8/6 6/9/6 9/12/6
f 9/1/7 10/13/7 1/10/7
f 11/7/8 12/14/8 3/15/8
f 14/16/5 12/11/5 4/5/5
f 16/8/9 13/17/9 9/12/9
f 10/18/5 14/16/5 15/6/5
f 11/19/10 13/17/10 16/8/10
f 8/4/11 16/8/11 15/6/11
f 11/19/12 7/4/12 18/8/12
f 10/18/5 2/10/5 17/6/5
f 18/8/13 17/6/13 2/10/13
f 10/13/14 9/1/14 2/3/14
f 18/8/15 7/4/15 17/6/15
f 12/14/16 11/7/16 4/5/16
f 15/6/17 16/8/17 1/10/17
f 14/16/5 17/6/5 12/11/5
f 13/17/18 18/8/18 9/12/18
f 5/9/19 9/1/19 1/10/19
f 7/20/20 11/7/20 3/15/20
f 15/6/5 14/16/5 4/5/5
f 5/9/21 16/8/21 9/12/21
f 1/10/5 10/18/5 15/6/5
f 8/4/22 11/19/22 16/8/22
f 4/5/23 8/4/23 15/6/23
f 13/17/24 11/19/24 18/8/24
f 14/16/5 10/18/5 17/6/5
f 6/9/25 18/8/25 2/10/25
