# Blender v2.72 (sub 0) OBJ File: 'vw-polo-super-simple-2.blend'
# www.blender.org
mtllib hanging-bulb.mtl
o bulb_Sphere
v -0.033258 0.061962 -0.000000
v -0.051962 0.030000 0.000000
v -0.060000 -0.000000 0.000000
v -0.051962 -0.030000 0.000000
v -0.030000 -0.051962 0.000000
v -0.000000 -0.060000 0.000000
v -0.028802 0.061962 -0.016629
v -0.045000 0.030000 -0.025981
v -0.051962 -0.000000 -0.030000
v -0.045000 -0.030000 -0.025981
v -0.025981 -0.051962 -0.015000
v -0.016629 0.061962 -0.028802
v -0.025981 0.030000 -0.045000
v -0.030000 -0.000000 -0.051962
v -0.025981 -0.030000 -0.045000
v -0.015000 -0.051962 -0.025981
v -0.000000 0.061962 -0.033258
v -0.000000 0.030000 -0.051962
v -0.000000 -0.000000 -0.060000
v -0.000000 -0.030000 -0.051962
v -0.000000 -0.051962 -0.030000
v -0.021000 0.091962 0.000000
v 0.016629 0.061962 -0.028802
v 0.025981 0.030000 -0.045000
v 0.030000 -0.000000 -0.051962
v 0.025981 -0.030000 -0.045000
v 0.015000 -0.051962 -0.025981
v 0.028802 0.061962 -0.016629
v 0.045000 0.030000 -0.025981
v 0.051962 -0.000000 -0.030000
v 0.045000 -0.030000 -0.025981
v 0.025981 -0.051962 -0.015000
v 0.033258 0.061962 0.000000
v 0.051962 0.030000 0.000000
v 0.060000 -0.000000 0.000000
v 0.051961 -0.030000 0.000000
v 0.030000 -0.051962 0.000000
v 0.028802 0.061962 0.016629
v 0.045000 0.030000 0.025981
v 0.051961 -0.000000 0.030000
v 0.045000 -0.030000 0.025981
v 0.025981 -0.051962 0.015000
v 0.016629 0.061962 0.028802
v 0.025981 0.030000 0.045000
v 0.030000 -0.000000 0.051962
v 0.025981 -0.030000 0.045000
v 0.015000 -0.051962 0.025981
v -0.000000 0.061962 0.033258
v -0.000000 0.030000 0.051962
v -0.000000 -0.000000 0.060000
v -0.000000 -0.030000 0.051961
v -0.000000 -0.051962 0.030000
v -0.016629 0.061962 0.028802
v -0.025981 0.030000 0.045000
v -0.030000 -0.000000 0.051961
v -0.025981 -0.030000 0.045000
v -0.015000 -0.051962 0.025981
v -0.028802 0.061962 0.016629
v -0.045000 0.030000 0.025981
v -0.051962 -0.000000 0.030000
v -0.045000 -0.030000 0.025981
v -0.025981 -0.051962 0.015000
v -0.018187 0.091962 -0.010500
v -0.010500 0.091962 -0.018187
v -0.000000 0.091962 -0.021000
v 0.010500 0.091962 -0.018187
v 0.018187 0.091962 -0.010500
v 0.021000 0.091962 0.000000
v 0.018187 0.091962 0.010500
v 0.010500 0.091962 0.018187
v -0.000000 0.091962 0.021000
v -0.010500 0.091962 0.018187
v -0.018187 0.091962 0.010500
v -0.021000 0.141962 0.000000
v -0.018187 0.141962 -0.010500
v -0.010500 0.141962 -0.018187
v -0.000000 0.141962 -0.021000
v 0.010500 0.141962 -0.018187
v 0.018187 0.141962 -0.010500
v 0.021000 0.141962 0.000000
v 0.018187 0.141962 0.010500
v 0.010500 0.141962 0.018187
v -0.000000 0.141962 0.021000
v -0.010500 0.141962 0.018187
v -0.018187 0.141962 0.010500
v -0.006048 0.154962 0.000000
v -0.004131 0.154962 -0.004131
v 0.003952 0.354962 -0.010000
v -0.000000 0.154962 -0.006048
v 0.004131 0.154962 -0.004131
v 0.014131 0.354962 -0.014131
v 0.006048 0.154962 0.000000
v 0.004131 0.154962 0.004131
v 0.010000 0.354962 -0.016048
v -0.000000 0.154962 0.006048
v -0.004131 0.154962 0.004131
v 0.005869 0.354962 -0.014131
v 0.006048 0.954962 -0.010000
v 0.004131 0.954962 -0.005869
v -0.000000 0.954962 -0.003952
v -0.004131 0.954962 -0.005869
v -0.004131 0.954962 -0.014131
v -0.000000 0.954962 -0.016048
v 0.004131 0.954962 -0.014131
v -0.006048 0.954962 -0.010000
v -0.016048 0.754962 0.000000
v -0.005869 0.754962 -0.004131
v -0.010000 0.754962 -0.006048
v -0.014131 0.754962 -0.004131
v -0.014131 0.754962 0.004131
v -0.010000 0.754962 0.006048
v -0.005869 0.754962 0.004131
v -0.003952 0.754962 0.000000
v 0.006048 0.554962 -0.010000
v 0.004131 0.554962 -0.005869
v -0.000000 0.554962 -0.003952
v -0.004131 0.554962 -0.005869
v -0.004131 0.554962 -0.014131
v -0.000000 0.554962 -0.016048
v 0.004131 0.554962 -0.014131
v -0.006048 0.554962 -0.010000
v 0.005869 0.354962 -0.005869
v 0.010000 0.354962 -0.003952
v 0.014131 0.354962 -0.005869
v 0.016048 0.354962 -0.010000
v -0.018187 0.091962 0.010500
v -0.021000 0.091962 0.000000
v -0.010500 0.091962 0.018187
v -0.000000 0.091962 0.021000
v 0.010500 0.091962 0.018187
v 0.018187 0.091962 0.010500
v 0.021000 0.091962 0.000000
v 0.018187 0.091962 -0.010500
v 0.010500 0.091962 -0.018187
v -0.000000 0.091962 -0.021000
v -0.010500 0.091962 -0.018187
v -0.018187 0.091962 -0.010500
v -0.018187 0.141962 0.010500
v -0.021000 0.141962 0.000000
v -0.010500 0.141962 0.018187
v -0.000000 0.141962 0.021000
v 0.010500 0.141962 0.018187
v 0.018187 0.141962 0.010500
v 0.021000 0.141962 0.000000
v 0.018187 0.141962 -0.010500
v 0.010500 0.141962 -0.018187
v -0.000000 0.141962 -0.021000
v -0.010500 0.141962 -0.018187
v -0.018187 0.141962 -0.010500
v -0.000000 0.154962 0.006048
v -0.004131 0.154962 0.004131
v 0.006048 0.154962 0.000000
v 0.004131 0.154962 0.004131
v -0.000000 0.154962 -0.006048
v 0.004131 0.154962 -0.004131
v -0.006048 0.154962 0.000000
v -0.004131 0.154962 -0.004131
vt 0.645934 0.161541
vt 0.536481 0.221446
vt 0.471511 0.114619
vt 0.708376 0.315009
vt 0.566094 0.335818
vt 0.694376 0.481459
vt 0.565554 0.460618
vt 0.608959 0.661717
vt 0.525638 0.629344
vt 0.445446 0.248613
vt 0.417338 0.144560
vt 0.457963 0.346666
vt 0.459001 0.453561
vt 0.443009 0.612672
vt 0.361864 0.256600
vt 0.361864 0.153793
vt 0.361864 0.350053
vt 0.361864 0.451842
vt 0.361864 0.607585
vt 0.278282 0.248613
vt 0.306390 0.144560
vt 0.265765 0.346666
vt 0.264727 0.453561
vt 0.280718 0.612672
vt 0.187246 0.221446
vt 0.252216 0.114619
vt 0.157634 0.335818
vt 0.158174 0.460618
vt 0.198090 0.629344
vt 0.077794 0.161541
vt 0.204265 0.056831
vt 0.015352 0.315009
vt 0.029352 0.481459
vt 0.114769 0.661717
vt 0.361864 0.017069
vt 0.519463 0.056831
vt 0.523674 0.810432
vt 0.471698 0.786812
vt 0.417298 0.773211
vt 0.361864 0.768785
vt 0.306430 0.773211
vt 0.252030 0.786812
vt 0.200054 0.810432
vt 0.983069 0.658029
vt 0.983069 0.868670
vt 0.937274 0.868670
vt 0.937274 0.658029
vt 0.891479 0.868670
vt 0.891479 0.658029
vt 0.845684 0.868670
vt 0.845684 0.658029
vt 0.799889 0.868670
vt 0.799889 0.658029
vt 0.754094 0.868670
vt 0.754094 0.658029
vt 0.708299 0.868670
vt 0.708299 0.658029
vt 0.951370 0.590036
vt 0.874032 0.621393
vt 0.861496 0.606874
vt -0.734524 0.957225
vt 0.111902 0.957225
vt 0.111902 0.984292
vt -0.734524 1.039253
vt -0.734524 1.011868
vt 0.111902 1.011868
vt 0.843331 0.517260
vt 0.843331 0.600713
vt 0.825166 0.606874
vt 0.798427 0.526203
vt 0.760453 0.551783
vt 0.735293 0.590036
vt 0.812631 0.621393
vt 0.926210 0.551783
vt 0.888236 0.526203
vt 1.804116 0.929536
vt 2.643228 0.929536
vt 2.643228 0.957225
vt 1.804116 0.956921
vt 2.643228 0.956921
vt 1.804116 0.957225
vt 2.643228 0.984293
vt 1.804116 0.984496
vt 2.643228 0.984496
vt 1.804116 1.011564
vt 2.643228 1.011564
vt 1.804116 1.039253
vt 1.804116 1.011868
vt 2.643228 1.011868
vt 1.804116 0.984293
vt 1.804116 1.039067
vt 2.643228 1.039238
vt 0.960374 1.039253
vt 0.960374 0.984292
vt 0.960374 0.957225
vt 0.960374 1.011868
vt 0.960374 0.984497
vt 0.960374 1.011564
vt 0.960374 0.929536
vt 0.111902 0.929536
vt 0.111902 1.011564
vt 0.111902 0.956921
vt 0.960374 0.956921
vt 0.111902 0.984497
vt 0.111902 1.039253
vt -0.734524 0.956921
vt -0.734524 0.984497
vt -0.734524 1.011564
vt -0.734524 0.984292
vt -0.734524 0.929535
vt 2.643228 1.039254
vn -0.876000 -0.482300 0.000000
vn -0.758600 -0.482300 -0.438000
vn -0.459800 -0.847400 -0.265400
vn -1.000000 0.000000 0.000000
vn -0.866000 0.000000 -0.500000
vn -0.925900 0.377800 0.000000
vn -0.801800 0.377800 -0.462900
vn -0.894300 0.447500 0.000000
vn -0.774500 0.447500 -0.447100
vn -0.438000 -0.482300 -0.758600
vn -0.265400 -0.847400 -0.459800
vn -0.500000 0.000000 -0.866000
vn -0.462900 0.377800 -0.801800
vn -0.447100 0.447500 -0.774500
vn 0.000000 -0.482300 -0.876000
vn 0.000000 -0.847400 -0.530900
vn 0.000000 0.000000 -1.000000
vn 0.000000 0.377800 -0.925900
vn 0.000000 0.447500 -0.894300
vn 0.438000 -0.482300 -0.758600
vn 0.265500 -0.847400 -0.459800
vn 0.500000 0.000000 -0.866000
vn 0.462900 0.377800 -0.801800
vn 0.447100 0.447500 -0.774500
vn 0.758600 -0.482300 -0.438000
vn 0.459800 -0.847400 -0.265500
vn 0.866000 0.000000 -0.500000
vn 0.801800 0.377800 -0.462900
vn 0.774500 0.447500 -0.447100
vn 0.876000 -0.482300 0.000000
vn 0.530900 -0.847400 0.000000
vn 1.000000 0.000000 0.000000
vn 0.925900 0.377800 0.000000
vn 0.894300 0.447500 0.000000
vn 0.758600 -0.482300 0.438000
vn 0.866000 0.000000 0.500000
vn 0.801800 0.377800 0.462900
vn 0.774500 0.447500 0.447100
vn 0.438000 -0.482300 0.758600
vn 0.265400 -0.847400 0.459800
vn 0.500000 0.000000 0.866000
vn 0.462900 0.377800 0.801800
vn 0.447100 0.447500 0.774500
vn 0.000000 -0.482300 0.876000
vn 0.000000 -0.847400 0.530900
vn 0.000000 0.000000 1.000000
vn 0.000000 0.377800 0.925900
vn 0.000000 0.447500 0.894300
vn -0.438000 -0.482300 0.758600
vn -0.500000 0.000000 0.866000
vn -0.462900 0.377800 0.801800
vn -0.447100 0.447500 0.774500
vn -0.758600 -0.482300 0.438000
vn -0.459800 -0.847400 0.265500
vn -0.866000 0.000000 0.500000
vn -0.801800 0.377800 0.462900
vn -0.774500 0.447500 0.447100
vn 0.000000 -1.000000 0.000000
vn -0.530900 -0.847400 0.000000
vn -0.925700 0.378200 0.000000
vn -0.801700 0.378200 -0.462900
vn -0.462900 0.378200 -0.801700
vn 0.000000 0.378200 -0.925700
vn 0.462900 0.378200 -0.801700
vn 0.801700 0.378200 -0.462900
vn 0.925700 0.378200 0.000000
vn 0.459800 -0.847400 0.265500
vn 0.801700 0.378200 0.462900
vn 0.462900 0.378200 0.801700
vn -0.000000 0.378200 0.925700
vn -0.265500 -0.847400 0.459800
vn -0.462900 0.378200 0.801700
vn -0.801700 0.378200 0.462900
vn -0.639100 0.769100 0.000000
vn -0.656100 0.754600 0.000000
vn -0.458900 0.760700 -0.458900
vn -0.717900 0.001100 -0.696100
vn -0.698700 -0.018100 -0.715100
vn 0.013200 -0.024800 -0.999600
vn 0.998700 -0.049300 0.013600
vn 0.705300 -0.070500 -0.705300
vn 0.709700 -0.017300 -0.704300
vn 0.000000 0.769100 -0.639100
vn 0.000000 0.754600 -0.656100
vn 0.458900 0.760700 -0.458900
vn -0.000000 0.769100 0.639100
vn 0.317000 0.763600 0.562600
vn 0.458900 0.760700 0.458900
vn 0.562600 0.763600 0.317000
vn 0.639100 0.769100 -0.000000
vn 0.656100 0.754600 0.000000
vn -0.562600 0.763600 0.317000
vn -0.458900 0.760700 0.458900
vn -0.317000 0.763600 0.562600
vn 0.000000 0.754600 0.656100
vn -0.317000 0.763600 -0.562600
vn -0.562600 0.763600 -0.317000
vn -0.999900 0.000000 0.013100
vn -0.998700 0.049300 -0.013600
vn -0.696100 -0.001100 -0.717900
vn -0.707100 0.000000 0.707100
vn -0.705300 0.070500 0.705300
vn -0.717900 0.000000 -0.696100
vn 0.013100 -0.050600 -0.998600
vn -0.013100 0.000000 0.999900
vn 0.013600 0.049300 0.998700
vn 0.696100 0.000000 0.717900
vn 0.717900 -0.001100 0.696100
vn 0.999900 0.000000 0.013600
vn 0.707100 0.000000 -0.707100
vn -0.013600 0.000000 -0.999900
vn 0.998600 -0.050600 -0.013100
vn 0.998700 0.050200 -0.006400
vn -0.000200 0.024800 -0.999700
vn -0.704200 -0.017200 -0.709800
vn 0.703300 0.052600 -0.708900
vn 0.000200 -0.025100 0.999700
vn 0.709600 0.018100 0.704300
vn -0.998700 -0.049600 -0.006900
vn -1.000000 -0.000300 -0.006800
vn 0.715100 0.017200 0.698800
vn -0.704200 0.017900 0.709700
vn -0.708800 -0.053300 0.703400
vn 0.013500 0.025100 0.999600
vn 1.000000 -0.000300 -0.006500
vn -0.013100 0.050600 0.998600
vn 0.696100 0.001100 0.717900
vn -0.013600 -0.049300 -0.998700
vn -0.998600 0.050600 0.013100
vn 0.562600 0.763600 -0.317000
vn 0.317000 0.763600 -0.562600
usemtl None
s 1
f 4/1/1 10/2/2 11/3/3
f 3/4/4 9/5/5 10/2/2
f 3/4/4 2/6/6 8/7/7
f 1/8/8 7/9/9 8/7/7
f 10/2/2 15/10/10 16/11/11
f 9/5/5 14/12/12 15/10/10
f 8/7/7 13/13/13 14/12/12
f 7/9/9 12/14/14 13/13/13
f 15/10/10 20/15/15 21/16/16
f 15/10/10 14/12/12 19/17/17
f 13/13/13 18/18/18 19/17/17
f 13/13/13 12/14/14 17/19/19
f 20/15/15 26/20/20 27/21/21
f 20/15/15 19/17/17 25/22/22
f 18/18/18 24/23/23 25/22/22
f 17/19/19 23/24/24 24/23/23
f 26/20/20 31/25/25 32/26/26
f 25/22/22 30/27/27 31/25/25
f 24/23/23 29/28/28 30/27/27
f 23/24/24 28/29/29 29/28/28
f 31/25/25 36/30/30 37/31/31
f 30/27/27 35/32/32 36/30/30
f 29/28/28 34/33/33 35/32/32
f 28/29/29 33/34/34 34/33/33
f 37/31/31 36/30/30 41/25/35
f 36/30/30 35/32/32 40/27/36
f 34/33/33 39/28/37 40/27/36
f 33/34/34 38/29/38 39/28/37
f 41/25/35 46/20/39 47/21/40
f 40/27/36 45/22/41 46/20/39
f 39/28/37 44/23/42 45/22/41
f 39/28/37 38/29/38 43/24/43
f 46/20/39 51/15/44 52/16/45
f 46/20/39 45/22/41 50/17/46
f 44/23/42 49/18/47 50/17/46
f 43/24/43 48/19/48 49/18/47
f 52/16/45 51/15/44 56/10/49
f 50/17/46 55/12/50 56/10/49
f 49/18/47 54/13/51 55/12/50
f 48/19/48 53/14/52 54/13/51
f 56/10/49 61/2/53 62/3/54
f 56/10/49 55/12/50 60/5/55
f 54/13/51 59/7/56 60/5/55
f 53/14/52 58/9/57 59/7/56
f 6/35/58 5/36/59 11/3/3
f 1/8/8 22/37/60 63/38/61
f 6/35/58 11/3/3 16/11/11
f 7/9/9 63/38/61 64/39/62
f 6/35/58 16/11/11 21/16/16
f 12/14/14 64/39/62 65/40/63
f 6/35/58 21/16/16 27/21/21
f 17/19/19 65/40/63 66/41/64
f 6/35/58 27/21/21 32/26/26
f 23/24/24 66/41/64 67/42/65
f 6/35/58 32/26/26 37/31/31
f 28/29/29 67/42/65 68/43/66
f 6/35/58 37/31/31 42/26/67
f 33/34/34 68/43/66 69/42/68
f 6/35/58 42/26/67 47/21/40
f 38/29/38 69/42/68 70/41/69
f 6/35/58 47/21/40 52/16/45
f 43/24/43 70/41/69 71/40/70
f 6/35/58 52/16/45 57/11/71
f 48/19/48 71/40/70 72/39/72
f 6/35/58 57/11/71 62/3/54
f 53/14/52 72/39/72 73/38/73
f 6/35/58 62/3/54 5/36/59
f 62/3/54 61/2/53 4/1/1
f 61/2/53 60/5/55 3/4/4
f 59/7/56 2/6/6 3/4/4
f 58/9/57 1/8/8 2/6/6
f 58/9/57 73/38/73 22/37/60
f 127/44/4 74/45/4 75/46/5
f 137/47/5 75/46/5 76/48/12
f 136/49/12 76/48/12 77/50/17
f 135/51/17 77/50/17 78/52/22
f 134/53/22 78/52/22 79/54/27
f 133/55/27 79/54/27 80/56/32
f 132/57/32 80/56/32 81/54/36
f 131/55/36 81/54/36 82/52/41
f 130/53/41 82/52/41 83/50/46
f 129/51/46 83/50/46 84/48/50
f 128/49/50 84/48/50 85/46/55
f 126/47/55 85/46/55 74/45/4
f 139/58/74 86/59/75 87/60/76
f 157/61/77 97/62/78 94/63/79
f 152/64/80 155/65/81 91/66/82
f 147/67/83 89/68/84 90/69/85
f 141/67/86 142/70/87 93/69/88
f 142/70/87 143/71/89 93/69/88
f 144/72/90 92/73/91 93/69/88
f 139/58/74 138/74/92 96/60/93
f 138/74/92 140/75/94 96/60/93
f 141/67/86 95/68/95 96/60/93
f 147/67/83 148/75/96 87/60/76
f 148/75/96 149/74/97 87/60/76
f 106/76/98 105/77/99 102/78/100
f 110/79/101 101/80/102 105/77/99
f 109/81/103 102/78/100 103/82/104
f 110/79/101 111/83/105 100/84/106
f 111/83/105 112/85/107 99/86/108
f 113/87/109 107/88/110 104/89/81
f 108/90/111 103/82/104 104/89/81
f 112/85/107 113/91/109 98/92/112
f 114/93/113 113/91/109 112/85/107
f 119/94/114 118/95/115 109/81/103
f 120/96/116 107/88/110 113/87/109
f 116/97/117 111/83/105 110/79/101
f 120/96/116 119/94/114 108/90/111
f 115/98/118 112/85/107 111/83/105
f 118/95/115 121/99/119 106/76/98
f 97/62/78 88/100/120 121/99/119
f 124/101/121 115/98/118 116/97/117
f 122/102/122 117/103/123 121/99/119
f 91/66/82 94/63/79 119/94/114
f 121/99/119 117/103/123 110/79/101
f 123/104/124 116/97/117 117/103/123
f 94/63/79 97/62/78 118/95/115
f 125/105/125 91/66/82 120/96/116
f 151/106/102 150/107/126 123/104/124
f 153/108/127 152/64/80 125/105/125
f 154/109/128 94/63/79 91/66/82
f 156/110/129 88/100/120 97/62/78
f 150/107/126 153/108/127 124/101/121
f 151/106/102 122/102/122 88/100/120
f 144/72/90 145/71/130 90/69/85
f 145/71/130 146/70/131 90/69/85
f 125/105/125 114/93/113 115/98/118
f 5/36/59 4/1/1 11/3/3
f 4/1/1 3/4/4 10/2/2
f 9/5/5 3/4/4 8/7/7
f 2/6/6 1/8/8 8/7/7
f 11/3/3 10/2/2 16/11/11
f 10/2/2 9/5/5 15/10/10
f 9/5/5 8/7/7 14/12/12
f 8/7/7 7/9/9 13/13/13
f 16/11/11 15/10/10 21/16/16
f 20/15/15 15/10/10 19/17/17
f 14/12/12 13/13/13 19/17/17
f 18/18/18 13/13/13 17/19/19
f 21/16/16 20/15/15 27/21/21
f 26/20/20 20/15/15 25/22/22
f 19/17/17 18/18/18 25/22/22
f 18/18/18 17/19/19 24/23/23
f 27/21/21 26/20/20 32/26/26
f 26/20/20 25/22/22 31/25/25
f 25/22/22 24/23/23 30/27/27
f 24/23/23 23/24/24 29/28/28
f 32/26/26 31/25/25 37/31/31
f 31/25/25 30/27/27 36/30/30
f 30/27/27 29/28/28 35/32/32
f 29/28/28 28/29/29 34/33/33
f 42/26/67 37/31/31 41/25/35
f 41/25/35 36/30/30 40/27/36
f 35/32/32 34/33/33 40/27/36
f 34/33/33 33/34/34 39/28/37
f 42/26/67 41/25/35 47/21/40
f 41/25/35 40/27/36 46/20/39
f 40/27/36 39/28/37 45/22/41
f 44/23/42 39/28/37 43/24/43
f 47/21/40 46/20/39 52/16/45
f 51/15/44 46/20/39 50/17/46
f 45/22/41 44/23/42 50/17/46
f 44/23/42 43/24/43 49/18/47
f 57/11/71 52/16/45 56/10/49
f 51/15/44 50/17/46 56/10/49
f 50/17/46 49/18/47 55/12/50
f 49/18/47 48/19/48 54/13/51
f 57/11/71 56/10/49 62/3/54
f 61/2/53 56/10/49 60/5/55
f 55/12/50 54/13/51 60/5/55
f 54/13/51 53/14/52 59/7/56
f 7/9/9 1/8/8 63/38/61
f 12/14/14 7/9/9 64/39/62
f 17/19/19 12/14/14 65/40/63
f 23/24/24 17/19/19 66/41/64
f 28/29/29 23/24/24 67/42/65
f 33/34/34 28/29/29 68/43/66
f 38/29/38 33/34/34 69/42/68
f 43/24/43 38/29/38 70/41/69
f 48/19/48 43/24/43 71/40/70
f 53/14/52 48/19/48 72/39/72
f 58/9/57 53/14/52 73/38/73
f 5/36/59 62/3/54 4/1/1
f 4/1/1 61/2/53 3/4/4
f 60/5/55 59/7/56 3/4/4
f 59/7/56 58/9/57 2/6/6
f 1/8/8 58/9/57 22/37/60
f 137/47/5 127/44/4 75/46/5
f 136/49/12 137/47/5 76/48/12
f 135/51/17 136/49/12 77/50/17
f 134/53/22 135/51/17 78/52/22
f 133/55/27 134/53/22 79/54/27
f 132/57/32 133/55/27 80/56/32
f 131/55/36 132/57/32 81/54/36
f 130/53/41 131/55/36 82/52/41
f 129/51/46 130/53/41 83/50/46
f 128/49/50 129/51/46 84/48/50
f 126/47/55 128/49/50 85/46/55
f 127/44/4 126/47/55 74/45/4
f 149/74/97 139/58/74 87/60/76
f 154/109/128 157/61/77 94/63/79
f 125/105/125 152/64/80 91/66/82
f 146/70/131 147/67/83 90/69/85
f 95/68/95 141/67/86 93/69/88
f 143/71/89 144/72/90 93/69/88
f 86/59/75 139/58/74 96/60/93
f 140/75/94 141/67/86 96/60/93
f 89/68/84 147/67/83 87/60/76
f 109/81/103 106/76/98 102/78/100
f 106/76/98 110/79/101 105/77/99
f 108/90/111 109/81/103 103/82/104
f 101/80/102 110/79/101 100/84/106
f 100/84/106 111/83/105 99/86/108
f 98/111/112 113/87/109 104/89/81
f 107/88/110 108/90/111 104/89/81
f 99/86/108 112/85/107 98/92/112
f 115/98/118 114/93/113 112/85/107
f 108/90/111 119/94/114 109/81/103
f 114/93/113 120/96/116 113/87/109
f 117/103/123 116/97/117 110/79/101
f 107/88/110 120/96/116 108/90/111
f 116/97/117 115/98/118 111/83/105
f 109/81/103 118/95/115 106/76/98
f 118/95/115 97/62/78 121/99/119
f 123/104/124 124/101/121 116/97/117
f 88/100/120 122/102/122 121/99/119
f 120/96/116 91/66/82 119/94/114
f 106/76/98 121/99/119 110/79/101
f 122/102/122 123/104/124 117/103/123
f 119/94/114 94/63/79 118/95/115
f 114/93/113 125/105/125 120/96/116
f 122/102/122 151/106/102 123/104/124
f 124/101/121 153/108/127 125/105/125
f 155/65/81 154/109/128 91/66/82
f 157/61/77 156/110/129 97/62/78
f 123/104/124 150/107/126 124/101/121
f 156/110/129 151/106/102 88/100/120
f 92/73/91 144/72/90 90/69/85
f 124/101/121 125/105/125 115/98/118
