# Blender v2.72 (sub 0) OBJ File: 'vw-polo-super-simple-2.blend'
# www.blender.org
mtllib workshop-columns.mtl
o workshop.003_Plane.004
v -1.500000 3.000000 -4.900000
v 1.500000 3.000000 -4.900000
v 1.499999 0.000000 -4.900000
v -1.500001 0.000000 -4.899999
v 1.900000 3.000000 -4.900000
v -4.900000 3.000000 1.500000
v -4.900000 0.000000 -1.899999
v -4.900000 0.000000 -1.499999
v -4.900000 3.000000 1.900001
v 4.900000 3.000000 -1.900000
v 4.900000 0.000000 -1.900000
v 4.900000 0.000000 -1.500000
v 4.900000 3.000000 -1.500000
v 4.900000 0.000000 1.500000
v 4.900000 3.000000 1.500000
v 4.900000 0.000000 1.900000
v 4.900000 3.000000 1.900000
v -4.900000 3.000000 -1.500000
v -1.900000 3.000000 -4.900000
v -4.900001 3.000000 -1.900000
v 1.900000 3.000000 4.900000
v 1.899999 0.000000 -4.900000
v -1.900001 0.000000 -4.900000
v -1.900000 3.000000 4.900001
v -1.500000 3.000000 4.900001
v -1.500000 0.000000 4.900001
v -1.900000 0.000000 4.900001
v 1.500000 3.000000 4.900001
v 1.900000 0.000000 4.900001
v 1.500000 0.000000 4.900001
v -4.899999 0.000000 1.900001
v -4.899999 0.000000 1.500001
v -1.900000 2.750000 1.900000
v -1.550000 2.700000 4.600000
v -1.900000 2.750000 4.650001
v 1.500000 2.750000 -4.650000
v 1.850000 2.700000 -4.600000
v 1.900000 2.750000 -4.650000
v 1.550000 2.700000 -4.600000
v -4.650000 0.000000 -1.499999
v -1.850000 2.700000 -1.550000
v 1.850000 2.699999 1.550000
v -1.900000 2.750000 -1.500000
v -1.900000 3.000000 -1.500000
v -1.850000 2.700000 -1.849999
v -1.900000 2.750000 -1.899999
v -1.900000 3.000000 -1.899999
v -4.600000 2.700000 -1.550000
v -4.650000 2.750000 -1.900000
v -4.600000 2.700000 -1.850000
v -4.650000 2.750000 -1.500000
v 4.650001 2.750000 1.899999
v 4.600000 2.700000 1.549999
v 1.900000 3.000000 1.500000
v 1.900000 3.000000 1.900000
v 1.900000 2.750000 1.500000
v 1.850000 2.700000 1.850000
v 1.900000 2.750000 1.900000
v 1.900000 3.000000 -1.900000
v 1.900000 3.000000 -1.500000
v 1.900000 2.750000 -1.900000
v 1.850000 2.700000 -1.550000
v 1.900000 2.750000 -1.500000
v 1.850000 2.700000 -1.850000
v 1.500000 3.000000 -1.900000
v 1.500000 2.750000 -1.900000
v 1.500000 3.000000 1.900000
v 1.550000 2.699999 1.850000
v 1.500000 2.750000 1.900000
v -1.550000 2.699999 1.850000
v -1.500000 2.750000 1.900000
v -1.850000 2.700000 1.550000
v 1.550000 2.700000 -1.550000
v 1.550000 2.700000 -1.850000
v -1.550000 2.700000 -1.550000
v -1.550000 2.700000 -1.850000
v -1.500000 2.750000 -1.500000
v 1.500000 3.000000 1.500000
v -1.500000 3.000000 1.500000
v -1.500000 3.000000 -1.500000
v -1.900000 3.000000 1.900000
v 1.499999 0.000000 -4.650000
v 1.849999 0.000000 -4.600000
v 1.899999 0.000000 -4.650000
v 1.549999 0.000000 -4.600000
v -1.850000 2.700000 4.600000
v -1.500000 2.750000 4.650001
v -1.900000 2.750000 -4.650000
v -1.550000 2.700000 -4.600000
v -1.500000 2.750000 -4.650000
v -1.850000 2.700000 -4.600000
v -1.500000 3.000000 -1.900000
v -1.500000 2.750000 -1.900000
v -1.900001 0.000000 -4.650000
v -1.550001 0.000000 -4.600000
v -1.500001 0.000000 -4.650000
v -1.850001 0.000000 -4.600000
v -1.500000 3.000000 1.900000
v -1.500000 0.000000 4.650001
v -1.850000 0.000000 4.600000
v -1.900000 0.000000 4.650001
v -1.550000 0.000000 4.600000
v 1.900000 2.750000 4.650001
v 1.550000 2.700000 4.600000
v 1.500000 2.750000 4.650001
v 1.850000 2.700000 4.600000
v 1.900000 0.000000 4.650001
v 1.550000 0.000000 4.600000
v 1.500000 0.000000 4.650001
v 1.850000 0.000000 4.600000
v -4.600000 0.000000 -1.849999
v -4.650000 0.000000 -1.899999
v -4.600000 0.000000 -1.549999
v 4.600000 2.700000 1.849999
v 4.650001 2.750000 1.499999
v -4.650000 2.750000 1.900000
v -4.600000 2.700000 1.550000
v -4.650000 2.750000 1.500000
v -4.600000 2.700000 1.850000
v -1.900000 3.000000 1.500000
v -1.900000 2.750000 1.500000
v -1.850000 2.700000 1.850001
v -4.650000 0.000000 1.900001
v -4.600000 0.000000 1.550002
v -4.650000 0.000000 1.500002
v -4.600000 0.000000 1.850001
v 4.650001 0.000000 1.499999
v 4.600000 0.000000 1.849999
v 4.650001 0.000000 1.899999
v 4.600000 0.000000 1.549999
v 4.650001 2.750000 -1.900001
v 4.600000 2.700000 -1.550001
v 4.650001 2.750000 -1.500001
v 4.600001 2.700000 -1.850001
v 4.650001 0.000000 -1.900001
v 4.600000 0.000000 -1.550001
v 4.650001 0.000000 -1.500001
v 4.600001 0.000000 -1.850001
v -1.550000 2.700000 1.550000
v -1.500000 2.750000 1.500000
v 1.550000 2.700000 1.550000
v 1.500000 2.750000 1.500000
v 1.500000 2.750000 -1.500000
v 1.500000 3.000000 -1.500000
vt 0.124597 -0.000034
vt 0.124597 0.909118
vt 0.103166 0.924272
vt 0.215512 -0.000034
vt 0.215512 0.909118
vt 0.236943 0.924272
vt 0.897312 0.022051
vt 0.977035 0.022050
vt 0.977038 0.978720
vt 0.756547 0.022051
vt 0.779096 0.006106
vt 0.779096 0.994667
vt 0.446228 0.890619
vt 0.446229 0.013670
vt 0.541897 0.013670
vt 0.423679 0.906564
vt 0.423680 0.029615
vt 0.756544 0.978720
vt 0.676822 0.978720
vt 0.874763 0.994666
vt 0.874763 0.006106
vt 0.564445 0.906564
vt 0.541896 0.890619
vt 0.779099 0.898996
vt 0.897315 0.978720
vt 0.676821 0.022053
vt 0.874767 0.898996
vt 0.756550 0.978720
vt 0.027404 1.000034
vt 0.027405 -0.000034
vt 0.103168 -0.000034
vt 0.644167 0.986287
vt 0.564447 0.029615
vt 0.343957 0.986286
vt 0.343957 0.029615
vt 0.312705 1.000034
vt 0.236940 -0.000034
vt 0.644171 0.029615
vt 0.312704 -0.000034
vn -0.707100 0.000000 -0.707100
vn -1.000000 0.000000 -0.000000
vn -0.707100 0.000000 0.707100
vn 0.707100 0.000000 0.707100
vn 1.000000 -0.000000 0.000000
vn 0.707100 -0.000000 -0.707100
vn 0.000000 0.000000 1.000000
vn 0.000000 -0.707100 -0.707100
vn -0.000000 -1.000000 0.000000
vn 0.707100 -0.707100 0.000000
vn 0.000000 0.000000 -1.000000
vn -0.000000 -0.707100 0.707100
vn -0.707100 -0.707100 -0.000000
usemtl columns
s off
f 138/1/1 134/2/1 131/3/1
f 136/4/2 132/5/2 134/2/2
f 133/6/3 132/5/3 136/4/3
f 126/1/4 119/2/4 116/3/4
f 126/1/5 124/4/5 117/5/5
f 118/6/6 117/5/6 124/4/6
f 113/1/4 48/2/4 51/3/4
f 111/4/5 50/5/5 48/2/5
f 49/6/6 50/5/6 111/4/6
f 143/7/7 144/8/7 80/9/7
f 102/1/6 34/2/6 87/3/6
f 66/10/8 74/11/8 76/12/8
f 50/13/9 45/14/9 41/15/9
f 38/16/10 61/17/10 64/14/10
f 100/4/11 86/5/11 34/2/11
f 66/10/11 93/18/11 92/19/11
f 141/11/8 139/12/8 140/18/8
f 52/6/3 114/5/3 128/4/3
f 42/20/10 62/21/10 63/7/10
f 51/22/12 48/23/12 41/15/12
f 62/20/9 73/12/9 74/24/9
f 73/21/9 75/20/9 76/12/9
f 36/22/13 39/23/13 74/15/13
f 35/6/1 86/5/1 100/4/1
f 37/13/9 64/14/9 74/15/9
f 73/21/12 143/7/12 77/25/12
f 140/18/11 79/19/11 78/26/11
f 128/4/2 114/5/2 53/2/2
f 49/16/8 46/17/8 45/14/8
f 130/1/1 53/2/1 115/3/1
f 38/6/4 37/5/4 83/4/4
f 83/4/7 37/5/7 39/2/7
f 85/1/3 39/2/3 36/3/3
f 90/6/4 89/5/4 95/4/4
f 95/4/7 89/5/7 91/2/7
f 97/1/3 91/2/3 88/3/3
f 105/6/1 104/5/1 108/4/1
f 108/4/11 104/5/11 106/2/11
f 110/1/6 106/2/6 103/3/6
f 90/16/10 93/17/10 76/14/10
f 105/16/13 69/17/13 68/14/13
f 103/22/10 106/23/10 57/15/10
f 104/13/9 68/14/9 57/15/9
f 134/23/9 132/13/9 62/14/9
f 131/22/8 134/23/8 64/15/8
f 133/16/12 63/17/12 62/14/12
f 117/13/9 72/14/9 122/15/9
f 116/22/12 119/23/12 122/15/12
f 118/16/8 121/17/8 72/14/8
f 86/13/9 122/14/9 70/15/9
f 52/16/12 58/17/12 57/14/12
f 87/22/10 34/23/10 70/15/10
f 53/23/9 114/13/9 57/14/9
f 115/22/8 53/23/8 42/15/8
f 35/16/13 33/17/13 122/14/13
f 88/22/13 91/23/13 45/15/13
f 89/13/9 76/14/9 45/15/9
f 56/25/5 63/7/5 60/8/5
f 139/12/9 141/11/9 68/21/9
f 68/20/9 141/12/9 42/24/9
f 122/27/9 72/20/9 139/12/9
f 71/25/7 69/7/7 67/8/7
f 141/12/9 73/11/9 62/21/9
f 141/12/13 142/18/13 143/10/13
f 71/25/12 70/20/12 68/21/12
f 142/18/2 78/19/2 144/26/2
f 41/20/13 72/21/13 121/7/13
f 43/25/2 121/7/2 120/8/2
f 76/20/9 75/12/9 41/24/9
f 41/20/9 75/12/9 139/11/9
f 139/11/10 75/12/10 77/28/10
f 77/28/5 80/19/5 79/26/5
f 9/29/7 31/30/7 123/31/7
f 18/29/7 8/30/7 40/31/7
f 2/32/2 36/22/2 66/33/2
f 5/34/5 59/35/5 61/17/5
f 25/29/5 26/30/5 99/31/5
f 18/32/7 51/22/7 43/33/7
f 24/36/2 35/6/2 101/37/2
f 5/36/5 38/6/5 84/37/5
f 2/29/2 3/30/2 82/31/2
f 28/36/2 105/6/2 109/37/2
f 24/34/2 81/35/2 33/17/2
f 1/34/5 92/35/5 93/17/5
f 1/36/5 90/6/5 96/37/5
f 19/29/2 23/30/2 94/31/2
f 21/32/5 103/22/5 58/33/5
f 28/34/2 67/35/2 69/17/2
f 21/29/5 29/30/5 107/31/5
f 10/29/11 11/30/11 135/31/11
f 13/34/7 60/35/7 63/17/7
f 10/32/11 131/22/11 61/33/11
f 6/36/11 118/6/11 125/37/11
f 6/34/11 120/35/11 121/17/11
f 9/32/7 116/22/7 33/33/7
f 17/34/7 55/35/7 58/17/7
f 13/36/7 133/6/7 137/37/7
f 15/32/11 115/22/11 56/33/11
f 20/36/11 49/6/11 112/37/11
f 17/36/7 52/6/7 129/37/7
f 15/29/11 14/30/11 127/31/11
f 20/34/11 47/35/11 46/17/11
f 19/32/2 88/22/2 46/33/2
f 25/32/5 87/22/5 71/33/5
f 135/31/1 138/1/1 131/3/1
f 138/1/2 136/4/2 134/2/2
f 137/37/3 133/6/3 136/4/3
f 123/31/4 126/1/4 116/3/4
f 119/2/5 126/1/5 117/5/5
f 125/37/6 118/6/6 124/4/6
f 40/31/4 113/1/4 51/3/4
f 113/1/5 111/4/5 48/2/5
f 112/37/6 49/6/6 111/4/6
f 77/25/7 143/7/7 80/9/7
f 99/31/6 102/1/6 87/3/6
f 93/18/8 66/10/8 76/12/8
f 48/23/9 50/13/9 41/15/9
f 37/13/10 38/16/10 64/14/10
f 102/1/11 100/4/11 34/2/11
f 65/26/11 66/10/11 92/19/11
f 142/10/8 141/11/8 140/18/8
f 129/37/3 52/6/3 128/4/3
f 56/25/10 42/20/10 63/7/10
f 43/33/12 51/22/12 41/15/12
f 64/27/9 62/20/9 74/24/9
f 74/11/9 73/21/9 76/12/9
f 66/33/13 36/22/13 74/15/13
f 101/37/1 35/6/1 100/4/1
f 39/23/9 37/13/9 74/15/9
f 75/20/12 73/21/12 77/25/12
f 142/10/11 140/18/11 78/26/11
f 130/1/2 128/4/2 53/2/2
f 50/13/8 49/16/8 45/14/8
f 127/31/1 130/1/1 115/3/1
f 84/37/4 38/6/4 83/4/4
f 85/1/7 83/4/7 39/2/7
f 82/31/3 85/1/3 36/3/3
f 96/37/4 90/6/4 95/4/4
f 97/1/7 95/4/7 91/2/7
f 94/31/3 97/1/3 88/3/3
f 109/37/1 105/6/1 108/4/1
f 110/1/11 108/4/11 106/2/11
f 107/31/6 110/1/6 103/3/6
f 89/13/10 90/16/10 76/14/10
f 104/13/13 105/16/13 68/14/13
f 58/33/10 103/22/10 57/15/10
f 106/23/9 104/13/9 57/15/9
f 64/15/9 134/23/9 62/14/9
f 61/33/8 131/22/8 64/15/8
f 132/13/12 133/16/12 62/14/12
f 119/23/9 117/13/9 122/15/9
f 33/33/12 116/22/12 122/15/12
f 117/13/8 118/16/8 72/14/8
f 34/23/9 86/13/9 70/15/9
f 114/13/12 52/16/12 57/14/12
f 71/33/10 87/22/10 70/15/10
f 42/15/9 53/23/9 57/14/9
f 56/33/8 115/22/8 42/15/8
f 86/13/13 35/16/13 122/14/13
f 46/33/13 88/22/13 45/15/13
f 91/23/9 89/13/9 45/15/9
f 54/9/5 56/25/5 60/8/5
f 70/20/9 139/12/9 68/21/9
f 57/27/9 68/20/9 42/24/9
f 70/24/9 122/27/9 139/12/9
f 98/9/7 71/25/7 67/8/7
f 42/20/9 141/12/9 62/21/9
f 73/11/13 141/12/13 143/10/13
f 69/7/12 71/25/12 68/21/12
f 143/10/2 142/18/2 144/26/2
f 43/25/13 41/20/13 121/7/13
f 44/9/2 43/25/2 120/8/2
f 45/27/9 76/20/9 41/24/9
f 72/21/9 41/20/9 139/11/9
f 140/10/10 139/11/10 77/28/10
f 140/10/5 77/28/5 79/26/5
f 116/3/7 9/29/7 123/31/7
f 51/3/7 18/29/7 40/31/7
f 65/38/2 2/32/2 66/33/2
f 38/16/5 5/34/5 61/17/5
f 87/3/5 25/29/5 99/31/5
f 44/38/7 18/32/7 43/33/7
f 27/39/2 24/36/2 101/37/2
f 22/39/5 5/36/5 84/37/5
f 36/3/2 2/29/2 82/31/2
f 30/39/2 28/36/2 109/37/2
f 35/16/2 24/34/2 33/17/2
f 90/16/5 1/34/5 93/17/5
f 4/39/5 1/36/5 96/37/5
f 88/3/2 19/29/2 94/31/2
f 55/38/5 21/32/5 58/33/5
f 105/16/2 28/34/2 69/17/2
f 103/3/5 21/29/5 107/31/5
f 131/3/11 10/29/11 135/31/11
f 133/16/7 13/34/7 63/17/7
f 59/38/11 10/32/11 61/33/11
f 32/39/11 6/36/11 125/37/11
f 118/16/11 6/34/11 121/17/11
f 81/38/7 9/32/7 33/33/7
f 52/16/7 17/34/7 58/17/7
f 12/39/7 13/36/7 137/37/7
f 54/38/11 15/32/11 56/33/11
f 7/39/11 20/36/11 112/37/11
f 16/39/7 17/36/7 129/37/7
f 115/3/11 15/29/11 127/31/11
f 49/16/11 20/34/11 46/17/11
f 47/38/2 19/32/2 46/33/2
f 98/38/5 25/32/5 71/33/5
