# Blender v2.72 (sub 0) OBJ File: 'vw-polo-super-simple-2.blend'
# www.blender.org
mtllib workshop-walls.mtl
o workshop.002_Plane.003
v -1.500000 3.000000 -4.900000
v 1.500000 3.000000 -4.900000
v 1.499999 0.000000 -4.900000
v -1.500001 0.000000 -4.899999
v -4.900000 0.000000 -4.900000
v 1.900000 3.000000 -4.900000
v -4.900000 3.000000 1.500000
v -4.900000 0.000000 -1.899999
v -4.900000 0.000000 -1.499999
v -4.900000 3.000000 1.900001
v 4.900000 0.000000 4.900000
v 4.900000 0.000000 -4.900000
v 4.900000 3.000000 -1.900000
v 4.900000 0.000000 -1.900000
v 4.900000 3.000000 -4.900000
v 4.900000 0.000000 -1.500000
v 4.900000 3.000000 -1.500000
v 4.900000 0.000000 1.500000
v 4.900000 3.000000 1.500000
v 4.900000 0.000000 1.900000
v 4.900000 3.000000 1.900000
v -4.900000 3.000000 -1.500000
v -1.900000 3.000000 -4.900000
v -4.900001 3.000000 -1.900000
v -4.900001 3.000000 -4.900000
v -4.900001 3.000000 4.900000
v 4.900000 3.000000 4.900000
v 1.900000 3.000000 4.900000
v 1.899999 0.000000 -4.900000
v -1.900001 0.000000 -4.900000
v -1.900000 3.000000 4.900001
v -1.500000 3.000000 4.900001
v -4.900000 0.000000 4.900000
v -1.500000 0.000000 4.900001
v -1.900000 0.000000 4.900001
v 1.500000 3.000000 4.900001
v 1.900000 0.000000 4.900001
v 1.500000 0.000000 4.900001
v -4.899999 0.000000 1.900001
v -4.899999 0.000000 1.500001
vt 0.000000 0.000000
vt 1.000000 0.000000
vt 1.000000 1.000000
vt 0.000000 1.000000
vn 0.000000 0.000000 1.000000
vn -1.000000 0.000000 0.000000
vn -0.000000 -0.000000 -1.000000
vn 1.000000 0.000000 -0.000000
usemtl wall
s off
f 4/1/1 3/2/1 2/3/1
f 14/2/2 13/3/2 15/4/2
f 18/2/2 19/3/2 17/4/2
f 11/1/3 37/2/3 28/3/3
f 35/1/3 33/2/3 26/3/3
f 11/2/2 27/3/2 21/4/2
f 34/2/3 32/3/3 36/4/3
f 12/2/1 15/3/1 6/4/1
f 30/2/1 23/3/1 25/4/1
f 40/1/4 9/2/4 22/3/4
f 39/2/4 10/3/4 26/4/4
f 8/1/4 5/2/4 25/3/4
f 1/4/1 4/1/1 2/3/1
f 12/1/2 14/2/2 15/4/2
f 16/1/2 18/2/2 17/4/2
f 27/4/3 11/1/3 28/3/3
f 31/4/3 35/1/3 26/3/3
f 20/1/2 11/2/2 21/4/2
f 38/1/3 34/2/3 36/4/3
f 29/1/1 12/2/1 6/4/1
f 5/1/1 30/2/1 25/4/1
f 7/4/4 40/1/4 22/3/4
f 33/1/4 39/2/4 26/4/4
f 24/4/4 8/1/4 25/3/4
