# Blender v2.72 (sub 0) OBJ File: 'vw-polo-super-simple-2.blend'
# www.blender.org
mtllib workshop-ceiling.mtl
o workshop_Plane
v -1.500000 3.000000 -4.900000
v 1.500000 3.000000 -4.900000
v 1.900000 3.000000 -4.900000
v -4.900000 3.000000 1.500000
v -4.900000 3.000000 1.900001
v 4.900000 3.000000 -1.900000
v 4.900000 3.000000 -4.900000
v 4.900000 3.000000 -1.500000
v 4.900000 3.000000 1.500000
v 4.900000 3.000000 1.900000
v -4.900000 3.000000 -1.500000
v -1.900000 3.000000 -4.900000
v -4.900001 3.000000 -1.900000
v -4.900001 3.000000 -4.900000
v -4.900001 3.000000 4.900000
v 4.900000 3.000000 4.900000
v 1.900000 3.000000 4.900000
v -1.900000 3.000000 4.900001
v -1.500000 3.000000 4.900001
v 1.500000 3.000000 4.900001
v -1.900000 3.000000 -1.500000
v -1.900000 3.000000 -1.899999
v 1.900000 3.000000 1.500000
v 1.900000 3.000000 1.900000
v 1.900000 3.000000 -1.900000
v 1.900000 3.000000 -1.500000
v 1.500000 3.000000 -1.900000
v 1.500000 3.000000 1.900000
v 1.500000 3.000000 1.500000
v -1.500000 3.000000 1.500000
v -1.500000 3.000000 -1.500000
v -1.900000 3.000000 1.900000
v -1.500000 3.000000 -1.900000
v -1.500000 3.000000 1.900000
v -1.900000 3.000000 1.500000
v 1.500000 3.000000 -1.500000
vt 1.000000 0.999997
vt 0.000000 0.999997
vt 0.000000 0.000000
vt 1.000000 0.000003
vn 0.000000 -1.000000 0.000000
usemtl ceiling
s off
f 9/1/1 23/2/1 26/3/1
f 19/2/1 34/3/1 28/4/1
f 2/4/1 27/1/1 33/2/1
f 6/1/1 25/2/1 3/3/1
f 16/1/1 17/2/1 24/3/1
f 18/1/1 15/2/1 5/3/1
f 11/3/1 21/4/1 35/1/1
f 22/1/1 13/2/1 14/3/1
f 31/3/1 36/4/1 29/1/1
f 8/4/1 9/1/1 26/3/1
f 20/1/1 19/2/1 28/4/1
f 1/3/1 2/4/1 33/2/1
f 7/4/1 6/1/1 3/3/1
f 10/4/1 16/1/1 24/3/1
f 32/4/1 18/1/1 5/3/1
f 4/2/1 11/3/1 35/1/1
f 12/4/1 22/1/1 14/3/1
f 30/2/1 31/3/1 29/1/1
